<svg fill="#000000" xmlns="http://www.w3.org/2000/svg"  viewBox="0 0 128 128" width="50px" height="50px"><path d="M 4 1 C 2.3 1 1 2.3 1 4 L 1 124 C 1 125.7 2.3 127 4 127 L 64.699219 127 C 67.399219 127 68.700781 123.80039 66.800781 121.90039 C 66.200781 121.40039 65.499219 121 64.699219 121 L 7 121 L 7 7 L 12.300781 7 C 13.900781 7 15.4 5.7992188 15.5 4.1992188 C 15.6 2.4992187 14.2 1 12.5 1 L 4 1 z M 27.5 1 C 25.8 1 24.5 2.3 24.5 4 L 24.5 16 C 24.5 17.7 25.8 19 27.5 19 L 74.5 19 C 76.2 19 77.5 17.7 77.5 16 L 77.5 7 L 95 7 L 95 52.199219 C 95 53.799219 96.199219 54.999219 97.699219 55.199219 C 99.499219 55.399219 101 54.000781 101 52.300781 L 101 4 C 101 2.3 99.7 1 98 1 L 27.5 1 z M 30.5 7 L 71.5 7 L 71.5 13 L 30.5 13 L 30.5 7 z M 37.5 38 C 35.8 38 34.5 39.3 34.5 41 C 34.5 42.7 35.8 44 37.5 44 L 64.5 44 C 66.2 44 67.5 42.7 67.5 41 C 67.5 39.3 66.2 38 64.5 38 L 37.5 38 z M 94 61 C 75.8 61 61 75.8 61 94 C 61 112.2 75.8 127 94 127 C 112.2 127 127 112.2 127 94 C 127 75.8 112.2 61 94 61 z M 22.699219 63 C 21.099219 63 19.6 64.200781 19.5 65.800781 C 19.4 67.500781 20.8 69 22.5 69 L 62.699219 69 C 63.599219 69 64.4 68.6 65 68 C 66.8 66 65.400781 63 62.800781 63 L 22.699219 63 z M 22.5 78 C 20.8 78 19.4 79.399219 19.5 81.199219 C 19.6 82.799219 20.999219 84 22.699219 84 L 54.099609 84 C 55.399609 84 56.500391 83.2 56.900391 82 C 57.600391 80 56.099609 78 54.099609 78 L 22.5 78 z M 109.13672 81.900391 C 109.89922 81.900391 110.64922 82.200781 111.19922 82.800781 C 112.39922 84.000781 112.39922 85.9 111.19922 87 L 94.099609 104.09961 C 93.499609 104.69961 92.8 105 92 105 C 91.2 105 90.400391 104.69961 89.900391 104.09961 L 81.400391 95.599609 C 80.200391 94.399609 80.200391 92.500391 81.400391 91.400391 C 82.600391 90.200391 84.499609 90.200391 85.599609 91.400391 L 91.900391 97.800781 L 107 82.800781 C 107.6 82.200781 108.37422 81.900391 109.13672 81.900391 z M 22.699219 93 C 21.099219 93 19.6 94.200781 19.5 95.800781 C 19.4 97.500781 20.8 99 22.5 99 L 52.199219 99 C 53.899219 99 55.199219 97.600391 55.199219 95.900391 L 55.199219 95.800781 C 54.999219 94.200781 53.699219 93 52.199219 93 L 22.699219 93 z"/></svg>