<svg fill="#000000" xmlns="http://www.w3.org/2000/svg"  viewBox="0 0 50 50" width="50px" height="50px"><path d="M 38.949219 3.003906 C 38.171875 3.046875 35.734375 3.121094 32.023438 4.859375 C 28.3125 6.59375 23.21875 9.96875 16.59375 16.59375 C 9.96875 23.21875 6.589844 28.316406 4.855469 32.027344 C 3.121094 35.734375 3.042969 38.171875 3 38.949219 L 3 39 C 3 39.898438 3.453125 40.511719 3.976563 41.199219 C 4.5 41.882813 5.167969 42.582031 5.867188 43.253906 C 7.269531 44.597656 8.769531 45.800781 9.457031 46.289063 C 11.039063 47.421875 12.894531 47.15625 13.738281 45.96875 C 14.34375 45.125 18.933594 38.152344 19.621094 37.015625 C 19.621094 37.015625 19.617188 37.015625 19.621094 37.015625 C 20.320313 35.957031 20.039063 34.699219 19.402344 33.53125 C 18.921875 32.652344 17.570313 30.300781 17.175781 29.617188 C 17.519531 29.09375 18.847656 27.144531 22.996094 22.996094 L 23 22.992188 L 23 22.988281 C 27.164063 18.753906 29.105469 17.488281 29.609375 17.171875 C 30.277344 17.554688 32.589844 18.886719 33.5 19.386719 C 34.609375 20.050781 35.890625 20.265625 36.957031 19.65625 L 36.96875 19.652344 L 36.976563 19.644531 C 37.511719 19.324219 39.5 18.03125 41.539063 16.691406 C 42.558594 16.023438 43.570313 15.355469 44.375 14.824219 C 45.167969 14.292969 45.703125 13.9375 45.96875 13.738281 C 47.152344 12.894531 47.421875 11.042969 46.289063 9.457031 C 45.804688 8.78125 44.605469 7.253906 43.257813 5.839844 C 42.585938 5.132813 41.882813 4.460938 41.191406 3.9375 C 40.503906 3.417969 39.871094 2.957031 38.949219 3.003906 Z M 39.050781 5 C 38.957031 5.003906 39.441406 5.121094 39.984375 5.53125 C 40.53125 5.945313 41.179688 6.558594 41.808594 7.21875 C 43.066406 8.539063 44.269531 10.074219 44.660156 10.621094 C 45.28125 11.488281 44.847656 12.082031 44.808594 12.109375 L 44.796875 12.121094 L 44.785156 12.125 C 44.699219 12.195313 44.066406 12.625 43.265625 13.15625 C 42.46875 13.6875 41.460938 14.355469 40.441406 15.019531 C 38.417969 16.347656 36.320313 17.707031 35.96875 17.921875 C 35.96875 17.921875 35.964844 17.921875 35.964844 17.921875 C 35.808594 18.007813 35.167969 18.050781 34.527344 17.667969 L 34.511719 17.65625 L 34.492188 17.648438 C 33.578125 17.148438 30.046875 15.121094 30.046875 15.121094 L 29.550781 14.835938 L 29.054688 15.121094 C 29.054688 15.121094 26.441406 16.636719 21.582031 21.582031 C 21.582031 21.582031 21.582031 21.585938 21.578125 21.585938 C 21.578125 21.585938 21.578125 21.585938 21.578125 21.589844 C 16.722656 26.441406 15.132813 29.03125 15.132813 29.03125 L 14.828125 29.535156 L 15.121094 30.046875 C 15.121094 30.046875 17.148438 33.578125 17.644531 34.492188 C 18.058594 35.25 17.949219 35.917969 17.953125 35.90625 L 17.941406 35.925781 L 17.929688 35.949219 C 17.53125 36.613281 12.378906 44.429688 12.109375 44.808594 C 12.082031 44.847656 11.484375 45.28125 10.621094 44.660156 C 10.082031 44.277344 8.5625 43.070313 7.25 41.8125 C 6.597656 41.179688 5.984375 40.535156 5.566406 39.984375 C 5.152344 39.4375 5.007813 38.945313 5.007813 39.003906 C 5.050781 38.109375 5.074219 36.277344 6.667969 32.875 C 8.277344 29.429688 11.507813 24.507813 18.007813 18.007813 C 24.507813 11.507813 29.425781 8.277344 32.871094 6.667969 C 36.316406 5.058594 38.164063 5.046875 39.050781 5 Z"/></svg>