<svg fill="#000000" xmlns="http://www.w3.org/2000/svg"  viewBox="0 0 512 512" width="50px" height="50px"><path d="M 244.61523 20.253906 L 101.75391 20.939453 A 46.709 46.709 0 0 0 55.273438 67.865234 L 56.714844 367.75977 A 46.406 46.406 0 0 0 70.552734 400.72266 A 46.4 46.4 0 0 0 103.41797 414.24219 L 103.65039 414.24219 L 248.38281 413.44336 A 106.01 106.01 0 1 0 356.9082 279.94336 L 356.13086 128.55664 A 6 6 0 0 0 354.34766 124.31836 L 251.01367 22.185547 A 6 6 0 0 0 247.36328 20.478516 L 245.21484 20.279297 C 245.01484 20.260297 244.81523 20.252906 244.61523 20.253906 z M 240.60742 32.267578 L 240.87891 88.615234 A 46.708 46.708 0 0 0 287.57812 135.09961 L 287.81055 135.09961 L 344.16016 134.83008 L 344.90625 279.91797 A 105.989 105.989 0 0 0 244.72656 385.75977 A 106.862 106.862 0 0 0 245.88867 401.45898 L 103.58789 402.24414 L 103.41602 402.24414 A 34.709 34.709 0 0 1 68.716797 367.70312 L 67.273438 67.808594 A 34.485 34.485 0 0 1 77.320312 43.216797 A 34.481 34.481 0 0 1 101.81445 32.933594 L 240.60742 32.267578 z M 252.65039 40.673828 L 335.81055 122.86719 L 287.75391 123.09961 L 287.58203 123.09961 A 34.709 34.709 0 0 1 252.88281 88.558594 L 252.65039 40.673828 z M 121.80078 190.88672 A 6 6 0 0 0 121.80078 202.88672 L 290.74023 202.88672 A 6 6 0 0 0 290.74023 190.88672 L 121.80078 190.88672 z M 121.80078 241.77148 A 6 6 0 0 0 121.80078 253.77148 L 174.45898 253.77148 A 6 6 0 0 0 174.45898 241.77148 L 121.80078 241.77148 z M 200.24414 241.77148 A 6 6 0 0 0 200.24414 253.77148 L 220.5918 253.77148 A 6 6 0 1 0 220.5918 241.77148 L 200.24414 241.77148 z M 350.72656 291.75977 A 94.107 94.107 0 0 1 444.72656 385.75977 A 94.108 94.108 0 0 1 350.72656 479.75977 A 94 94 0 0 1 350.72656 291.75977 z M 341.63672 333.12695 A 6 6 0 0 0 335.81055 339.12305 L 335.81055 394.56055 A 6 6 0 0 0 338.57422 399.61328 L 366.40625 417.44531 A 6 6 0 0 0 372.88086 407.3457 L 347.81055 391.2832 L 347.81055 339.12305 A 6 6 0 0 0 341.63672 333.12695 z"/></svg>