<svg fill="#000000" xmlns="http://www.w3.org/2000/svg"  viewBox="0 0 80 80" width="15px" height="15px"><path d="M 15 9 L 15 71 L 31 71 L 31 69 L 17 69 L 17 11 L 49 11 L 49 25 L 63 25 L 63 53 L 65 53 L 65 23.585938 L 50.414062 9 L 15 9 z M 51 12.414062 L 61.585938 23 L 51 23 L 51 12.414062 z M 22 13 A 1 1 0 0 0 21 14 A 1 1 0 0 0 22 15 A 1 1 0 0 0 23 14 A 1 1 0 0 0 22 13 z M 22 17 A 1 1 0 0 0 21 18 A 1 1 0 0 0 22 19 A 1 1 0 0 0 23 18 A 1 1 0 0 0 22 17 z M 22 21 A 1 1 0 0 0 21 22 A 1 1 0 0 0 22 23 A 1 1 0 0 0 23 22 A 1 1 0 0 0 22 21 z M 22 25 A 1 1 0 0 0 21 26 A 1 1 0 0 0 22 27 A 1 1 0 0 0 23 26 A 1 1 0 0 0 22 25 z M 22 29 A 1 1 0 0 0 21 30 A 1 1 0 0 0 22 31 A 1 1 0 0 0 23 30 A 1 1 0 0 0 22 29 z M 22 33 A 1 1 0 0 0 21 34 A 1 1 0 0 0 22 35 A 1 1 0 0 0 23 34 A 1 1 0 0 0 22 33 z M 22 37 A 1 1 0 0 0 21 38 A 1 1 0 0 0 22 39 A 1 1 0 0 0 23 38 A 1 1 0 0 0 22 37 z M 50 39 L 50 40 L 50 69 L 47 69 L 47 47 L 37 47 L 37 48 L 37 69 L 34 69 L 34 71 L 37 71 L 47 71 L 76 71 L 76 69 L 73 69 L 73 56 L 63 56 L 63 57 L 63 69 L 60 69 L 60 39 L 50 39 z M 22 41 A 1 1 0 0 0 21 42 A 1 1 0 0 0 22 43 A 1 1 0 0 0 23 42 A 1 1 0 0 0 22 41 z M 52 41 L 58 41 L 58 69 L 52 69 L 52 41 z M 22 45 A 1 1 0 0 0 21 46 A 1 1 0 0 0 22 47 A 1 1 0 0 0 23 46 A 1 1 0 0 0 22 45 z M 22 49 A 1 1 0 0 0 21 50 A 1 1 0 0 0 22 51 A 1 1 0 0 0 23 50 A 1 1 0 0 0 22 49 z M 39 49 L 41 49 A 1 1 0 0 0 42 50 A 1 1 0 0 0 43 49 L 45 49 L 45 51 A 1 1 0 0 0 44 52 A 1 1 0 0 0 45 53 L 45 57 A 1 1 0 0 0 44 58 A 1 1 0 0 0 45 59 L 45 63 A 1 1 0 0 0 44 64 A 1 1 0 0 0 45 65 L 45 69 L 39 69 L 39 65 A 1 1 0 0 0 40 64 A 1 1 0 0 0 39 63 L 39 59 A 1 1 0 0 0 40 58 A 1 1 0 0 0 39 57 L 39 53 A 1 1 0 0 0 40 52 A 1 1 0 0 0 39 51 L 39 49 z M 22 53 A 1 1 0 0 0 21 54 A 1 1 0 0 0 22 55 A 1 1 0 0 0 23 54 A 1 1 0 0 0 22 53 z M 42 54 A 1 1 0 0 0 41 55 A 1 1 0 0 0 42 56 A 1 1 0 0 0 43 55 A 1 1 0 0 0 42 54 z M 22 57 A 1 1 0 0 0 21 58 A 1 1 0 0 0 22 59 A 1 1 0 0 0 23 58 A 1 1 0 0 0 22 57 z M 66 58 L 70 58 A 1 1 0 0 0 71 59 L 71 63 A 1 1 0 0 0 70 64 A 1 1 0 0 0 71 65 L 71 69 L 65 69 L 65 65 A 1 1 0 0 0 66 64 A 1 1 0 0 0 65 63 L 65 59 A 1 1 0 0 0 66 58 z M 42 60 A 1 1 0 0 0 41 61 A 1 1 0 0 0 42 62 A 1 1 0 0 0 43 61 A 1 1 0 0 0 42 60 z M 68 60 A 1 1 0 0 0 67 61 A 1 1 0 0 0 68 62 A 1 1 0 0 0 69 61 A 1 1 0 0 0 68 60 z M 22 61 A 1 1 0 0 0 21 62 A 1 1 0 0 0 22 63 A 1 1 0 0 0 23 62 A 1 1 0 0 0 22 61 z M 22 65 A 1 1 0 0 0 21 66 A 1 1 0 0 0 22 67 A 1 1 0 0 0 23 66 A 1 1 0 0 0 22 65 z M 42 66 A 1 1 0 0 0 41 67 A 1 1 0 0 0 42 68 A 1 1 0 0 0 43 67 A 1 1 0 0 0 42 66 z M 68 66 A 1 1 0 0 0 67 67 A 1 1 0 0 0 68 68 A 1 1 0 0 0 69 67 A 1 1 0 0 0 68 66 z"/></svg>