<svg fill="#000000" xmlns="http://www.w3.org/2000/svg"  viewBox="0 0 50 50" width="15px" height="15px"><path d="M 25 2 C 12.317 2 2 12.318 2 25 C 2 37.682 12.317 48 25 48 C 26.9 48 28.744719 47.764125 30.511719 47.328125 C 30.077719 46.767125 29.691328 46.170109 29.361328 45.537109 C 27.953328 45.836109 26.496 46 25 46 C 13.421 46 4 36.58 4 25 C 4 13.42 13.421 4 25 4 C 36.579 4 46 13.42 46 25 C 46 26.496 45.836109 27.953328 45.537109 29.361328 C 46.170109 29.691328 46.767125 30.078719 47.328125 30.511719 C 47.764125 28.744719 48 26.9 48 25 C 48 12.318 37.683 2 25 2 z M 24.984375 6.9863281 A 1.0001 1.0001 0 0 0 24 8 L 24 22.175781 A 3 3 0 0 0 22.294922 26.291016 L 16.292969 32.292969 A 1.0001 1.0001 0 1 0 17.707031 33.707031 L 23.707031 27.707031 A 3 3 0 0 0 25 28 A 3 3 0 0 0 26 22.171875 L 26 8 A 1.0001 1.0001 0 0 0 24.984375 6.9863281 z M 40 30 C 34.5 30 30 34.5 30 40 C 30 45.5 34.5 50 40 50 C 45.5 50 50 45.5 50 40 C 50 34.5 45.5 30 40 30 z M 40 32 C 44.4 32 48 35.6 48 40 C 48 44.4 44.4 48 40 48 C 35.6 48 32 44.4 32 40 C 32 35.6 35.6 32 40 32 z M 39.199219 35 C 39.099219 35 39 35.099219 39 35.199219 L 39 40.800781 C 39 40.900781 39.099219 41 39.199219 41 L 40.800781 41 C 40.900781 41 41 40.900781 41 40.800781 L 41 35.199219 C 41 35.099219 40.900781 35 40.800781 35 L 39.199219 35 z M 39.199219 43 C 39.099219 43 39 43.099219 39 43.199219 L 39 44.800781 C 39 44.900781 39.099219 45 39.199219 45 L 40.800781 45 C 40.900781 45 41 44.900781 41 44.800781 L 41 43.199219 C 41 43.099219 40.900781 43 40.800781 43 L 39.199219 43 z"/></svg>