<svg fill="#000000" xmlns="http://www.w3.org/2000/svg"  viewBox="0 0 80 80" width="15px" height="15px"><path d="M 15 9 L 15 71 L 65 71 L 65 23.585938 L 50.414062 9 L 50 9 L 15 9 z M 17 11 L 49 11 L 49 25 L 63 25 L 63 69 L 17 69 L 17 11 z M 51 12.414062 L 61.585938 23 L 51 23 L 51 12.414062 z M 22 13 A 1 1 0 0 0 21 14 A 1 1 0 0 0 22 15 A 1 1 0 0 0 23 14 A 1 1 0 0 0 22 13 z M 22 17 A 1 1 0 0 0 21 18 A 1 1 0 0 0 22 19 A 1 1 0 0 0 23 18 A 1 1 0 0 0 22 17 z M 22 21 A 1 1 0 0 0 21 22 A 1 1 0 0 0 22 23 A 1 1 0 0 0 23 22 A 1 1 0 0 0 22 21 z M 22 25 A 1 1 0 0 0 21 26 A 1 1 0 0 0 22 27 A 1 1 0 0 0 23 26 A 1 1 0 0 0 22 25 z M 22 29 A 1 1 0 0 0 21 30 A 1 1 0 0 0 22 31 A 1 1 0 0 0 23 30 A 1 1 0 0 0 22 29 z M 41 29 C 33.279858 29 27 35.279858 27 43 C 27 50.720142 33.279858 57 41 57 C 48.720142 57 55 50.720142 55 43 C 55 35.279858 48.720142 29 41 29 z M 42 31.048828 C 47.837227 31.528825 52.468716 36.162067 52.949219 42 L 42 42 L 42 38 A 1 1 0 0 0 43 37 A 1 1 0 0 0 42 36 L 42 31.048828 z M 40 31.050781 L 40 43.414062 L 48.740234 52.15625 C 46.65285 53.924979 43.958831 55 41 55 C 34.360738 55 29 49.639262 29 43 C 29 36.698505 33.832002 31.55845 40 31.050781 z M 22 33 A 1 1 0 0 0 21 34 A 1 1 0 0 0 22 35 A 1 1 0 0 0 23 34 A 1 1 0 0 0 22 33 z M 45 33 A 1 1 0 0 0 44 34 A 1 1 0 0 0 45 35 A 1 1 0 0 0 46 34 A 1 1 0 0 0 45 33 z M 48 36 A 1 1 0 0 0 47 37 A 1 1 0 0 0 48 38 A 1 1 0 0 0 49 37 A 1 1 0 0 0 48 36 z M 22 37 A 1 1 0 0 0 21 38 A 1 1 0 0 0 22 39 A 1 1 0 0 0 23 38 A 1 1 0 0 0 22 37 z M 45 39 A 1 1 0 0 0 44 40 A 1 1 0 0 0 45 41 A 1 1 0 0 0 46 40 A 1 1 0 0 0 45 39 z M 51 39 A 1 1 0 0 0 50 40 A 1 1 0 0 0 51 41 A 1 1 0 0 0 52 40 A 1 1 0 0 0 51 39 z M 22 41 A 1 1 0 0 0 21 42 A 1 1 0 0 0 22 43 A 1 1 0 0 0 23 42 A 1 1 0 0 0 22 41 z M 43.414062 44 L 52.949219 44 C 52.738201 46.56379 51.718707 48.889158 50.15625 50.740234 L 43.414062 44 z M 22 45 A 1 1 0 0 0 21 46 A 1 1 0 0 0 22 47 A 1 1 0 0 0 23 46 A 1 1 0 0 0 22 45 z M 22 49 A 1 1 0 0 0 21 50 A 1 1 0 0 0 22 51 A 1 1 0 0 0 23 50 A 1 1 0 0 0 22 49 z M 22 53 A 1 1 0 0 0 21 54 A 1 1 0 0 0 22 55 A 1 1 0 0 0 23 54 A 1 1 0 0 0 22 53 z M 22 57 A 1 1 0 0 0 21 58 A 1 1 0 0 0 22 59 A 1 1 0 0 0 23 58 A 1 1 0 0 0 22 57 z M 22 61 A 1 1 0 0 0 21 62 A 1 1 0 0 0 22 63 A 1 1 0 0 0 23 62 A 1 1 0 0 0 22 61 z M 22 65 A 1 1 0 0 0 21 66 A 1 1 0 0 0 22 67 A 1 1 0 0 0 23 66 A 1 1 0 0 0 22 65 z"/></svg>