<svg fill="#000000" xmlns="http://www.w3.org/2000/svg"  viewBox="0 0 512 512" width="15px" height="15px"><path d="M 240.61328 29.623047 C 235.70528 29.623047 231.52223 33.185297 230.74023 38.029297 L 222.23047 90.785156 C 215.11547 92.302156 208.19619 94.119875 201.74219 96.171875 L 168.61719 54.552734 C 165.54419 50.691734 160.11703 49.648656 155.83203 52.097656 L 128.9043 67.484375 C 124.5823 69.954375 122.73531 75.226516 124.57031 79.853516 L 144.13867 129.19922 C 138.93267 134.04022 134.03727 138.93462 129.19727 144.14062 L 79.853516 124.57227 C 75.227516 122.73727 69.955375 124.58625 67.484375 128.90625 L 52.097656 155.83398 C 49.649656 160.11798 50.692734 165.54714 54.552734 168.61914 L 96.171875 201.74414 C 94.119875 208.19914 92.301156 215.11942 90.785156 222.23242 L 38.03125 230.74219 C 33.18525 231.52319 29.623047 235.70723 29.623047 240.61523 L 29.623047 271.38867 C 29.623047 276.35667 33.269547 280.5702 38.185547 281.2832 L 90.730469 288.91016 C 92.145469 295.75516 93.938484 302.51245 96.146484 309.31445 L 54.550781 342.41992 C 50.690781 345.49192 49.647703 350.92208 52.095703 355.20508 L 67.482422 382.13281 C 69.952422 386.45481 75.222563 388.30275 79.851562 386.46875 L 129.13672 366.92383 C 133.88272 372.18983 138.79145 377.41158 144.06445 382.14258 L 124.54883 432.20312 C 122.74883 436.82013 124.6023 442.05858 128.9043 444.51758 L 155.83008 459.9043 C 160.11408 462.3513 165.54319 461.30822 168.61719 457.44922 L 201.74219 415.83008 C 208.19619 417.88208 215.11547 419.6998 222.23047 421.2168 L 230.73828 473.97266 C 231.52028 478.81766 235.70233 482.37891 240.61133 482.37891 L 271.38672 482.37891 C 276.35472 482.37891 280.56825 478.73241 281.28125 473.81641 L 288.9082 421.27148 C 295.7542 419.85648 302.5125 418.06152 309.3125 415.85352 L 342.41797 457.44922 C 345.48897 461.30922 350.91712 462.3523 355.20312 459.9043 L 382.13086 444.51758 C 386.43386 442.05858 388.28633 436.82012 386.48633 432.20312 L 367 382.21094 C 372.367 377.55094 377.55094 372.367 382.21094 367 L 432.20117 386.48828 C 436.81317 388.28628 442.05563 386.43481 444.51562 382.13281 L 459.90234 355.20508 C 462.35034 350.92208 461.30727 345.49192 457.44727 342.41992 L 415.85156 309.31445 C 418.05956 302.51345 419.85453 295.75516 421.26953 288.91016 L 473.81445 281.2832 C 478.73045 280.5692 482.37695 276.35567 482.37695 271.38867 L 482.37695 240.61523 C 482.37795 235.70523 478.8147 231.52123 473.9707 230.74023 L 421.2168 222.23047 C 419.6998 215.11547 417.88013 208.19619 415.82812 201.74219 L 457.44727 168.61719 C 461.30727 165.54519 462.35034 160.11503 459.90234 155.83203 L 444.51562 128.90625 C 442.05662 124.60325 436.81717 122.75078 432.20117 124.55078 L 382.14062 144.06445 C 377.41062 138.79145 372.18788 133.88272 366.92188 129.13672 L 386.4668 79.853516 C 388.3018 75.226516 386.45481 69.954375 382.13281 67.484375 L 355.20312 52.097656 C 350.92012 49.650656 345.49292 50.694734 342.41992 54.552734 L 309.3125 96.148438 C 302.5115 93.940438 295.75516 92.145469 288.91016 90.730469 L 281.2832 38.185547 C 280.5692 33.269547 276.35372 29.623047 271.38672 29.623047 L 240.61328 29.623047 z M 249.13086 49.621094 L 262.73438 49.621094 L 270.14648 100.68359 C 270.77148 104.98859 274.10744 108.39533 278.39844 109.11133 C 288.83844 110.85133 298.95327 113.53078 309.32227 117.30078 C 313.36027 118.76978 317.88845 117.49091 320.56445 114.12891 L 352.72852 73.716797 L 364.67773 80.544922 L 345.75781 128.25781 C 344.20781 132.16581 345.2672 136.62497 348.4082 139.41797 C 356.9572 147.01697 365.03317 154.19305 371.20117 162.12305 C 373.91717 165.61505 378.60556 166.90773 382.72656 165.30273 L 431.42969 146.31641 L 438.2832 158.31055 L 397.87109 190.47461 C 394.50909 193.15161 393.23022 197.6778 394.69922 201.7168 C 398.05522 210.9468 400.89606 221.69016 402.91406 232.78516 C 403.67306 236.95516 406.97716 240.19219 411.16016 240.86719 L 462.37891 249.13086 L 462.37891 262.73242 L 411.31641 270.14453 C 407.01141 270.76953 403.60467 274.10548 402.88867 278.39648 C 401.14867 288.83648 398.46922 298.95327 394.69922 309.32227 C 393.23022 313.36127 394.50909 317.8855 397.87109 320.5625 L 438.2832 352.72852 L 431.42969 364.7207 L 382.72656 345.73438 C 378.60456 344.12637 373.91617 345.42106 371.20117 348.91406 C 365.00517 356.88106 356.88106 365.00517 348.91406 371.20117 C 345.42106 373.91717 344.12838 378.60456 345.73438 382.72656 L 364.7207 431.42969 L 352.72852 438.2832 L 320.5625 397.87109 C 317.8865 394.50809 313.36027 393.23022 309.32227 394.69922 C 298.95327 398.47022 288.83748 401.14867 278.39648 402.88867 C 274.10548 403.60467 270.76953 407.01141 270.14453 411.31641 L 262.73242 462.37891 L 249.12891 462.37891 L 240.86719 411.16016 C 240.19219 406.97616 236.95416 403.67306 232.78516 402.91406 C 221.68916 400.89606 210.9458 398.05717 201.7168 394.70117 C 197.6788 393.22917 193.15261 394.50909 190.47461 397.87109 L 158.30859 438.2832 L 146.31445 431.42969 L 165.30078 382.72656 C 166.90778 378.60456 165.61505 373.91617 162.12305 371.20117 C 154.19305 365.03317 147.01602 356.95916 139.41602 348.41016 C 136.62402 345.26716 132.16286 344.20881 128.25586 345.75781 L 80.542969 364.67773 L 73.714844 352.72852 L 114.12695 320.56445 C 117.48995 317.88745 118.76588 313.36127 117.29688 309.32227 C 113.52587 298.95127 110.84642 288.83644 109.10742 278.39844 C 108.39242 274.10744 104.98664 270.77148 100.68164 270.14648 L 49.619141 262.73438 L 49.619141 249.13086 L 100.83594 240.86719 C 105.01994 240.19219 108.32303 236.95516 109.08203 232.78516 C 111.09903 221.69216 113.93987 210.9498 117.29688 201.7168 C 118.76587 197.6778 117.48895 193.15161 114.12695 190.47461 L 73.714844 158.31055 L 80.544922 146.36133 L 128.25781 165.28125 C 132.16581 166.83025 136.62497 165.77186 139.41797 162.63086 C 146.86997 154.24686 154.24591 146.87092 162.62891 139.41992 C 165.77091 136.62692 166.8293 132.16581 165.2793 128.25781 L 146.35938 80.544922 L 158.31055 73.716797 L 190.47461 114.12891 C 193.15161 117.49191 197.6778 118.77183 201.7168 117.29883 C 210.9458 113.94383 221.68916 111.10394 232.78516 109.08594 C 236.95416 108.32694 240.19414 105.02284 240.86914 100.83984 L 249.13086 49.621094 z M 256 166.18164 C 206.213 166.18164 166.18164 206.199 166.18164 256 C 166.18164 304.996 206.474 344.85742 256 344.85742 C 304.847 344.85742 344.85742 304.838 344.85742 256 C 344.85642 206.474 304.996 166.18164 256 166.18164 z M 256 186.18164 C 293.968 186.18164 324.85742 217.502 324.85742 256 C 324.85642 293.968 293.968 324.85742 256 324.85742 C 217.501 324.85742 186.18164 293.967 186.18164 256 C 186.18164 217.502 217.502 186.18164 256 186.18164 z"/></svg>