<svg fill="#000000" xmlns="http://www.w3.org/2000/svg"  viewBox="0 0 80 80" width="15px" height="15px"><path d="M 11 11 L 11 67 C 10.996094 67.359375 11.183594 67.695313 11.496094 67.878906 C 11.808594 68.058594 12.191406 68.058594 12.503906 67.878906 C 12.816406 67.695313 13.003906 67.359375 13 67 L 13 13 L 67 13 L 67 67 C 66.996094 67.359375 67.183594 67.695313 67.496094 67.878906 C 67.808594 68.058594 68.191406 68.058594 68.503906 67.878906 C 68.816406 67.695313 69.003906 67.359375 69 67 L 69 11 Z M 21 19 L 21 29 L 59 29 L 59 19 Z M 23 21 L 57 21 L 57 27 L 23 27 Z M 22 39 C 21.449219 39 21 39.449219 21 40 C 21 40.550781 21.449219 41 22 41 C 22.550781 41 23 40.550781 23 40 C 23 39.449219 22.550781 39 22 39 Z M 26 39 C 25.449219 39 25 39.449219 25 40 C 25 40.550781 25.449219 41 26 41 C 26.550781 41 27 40.550781 27 40 C 27 39.449219 26.550781 39 26 39 Z M 30 39 C 29.449219 39 29 39.449219 29 40 C 29 40.550781 29.449219 41 30 41 C 30.550781 41 31 40.550781 31 40 C 31 39.449219 30.550781 39 30 39 Z M 34 39 C 33.449219 39 33 39.449219 33 40 C 33 40.550781 33.449219 41 34 41 C 34.550781 41 35 40.550781 35 40 C 35 39.449219 34.550781 39 34 39 Z M 38 39 C 37.449219 39 37 39.449219 37 40 C 37 40.550781 37.449219 41 38 41 C 38.550781 41 39 40.550781 39 40 C 39 39.449219 38.550781 39 38 39 Z M 42 39 C 41.449219 39 41 39.449219 41 40 C 41 40.550781 41.449219 41 42 41 C 42.550781 41 43 40.550781 43 40 C 43 39.449219 42.550781 39 42 39 Z M 46 39 C 45.449219 39 45 39.449219 45 40 C 45 40.550781 45.449219 41 46 41 C 46.550781 41 47 40.550781 47 40 C 47 39.449219 46.550781 39 46 39 Z M 50 39 C 49.449219 39 49 39.449219 49 40 C 49 40.550781 49.449219 41 50 41 C 50.550781 41 51 40.550781 51 40 C 51 39.449219 50.550781 39 50 39 Z M 54 39 C 53.449219 39 53 39.449219 53 40 C 53 40.550781 53.449219 41 54 41 C 54.550781 41 55 40.550781 55 40 C 55 39.449219 54.550781 39 54 39 Z M 58 39 C 57.449219 39 57 39.449219 57 40 C 57 40.550781 57.449219 41 58 41 C 58.550781 41 59 40.550781 59 40 C 59 39.449219 58.550781 39 58 39 Z M 22 47 C 21.449219 47 21 47.449219 21 48 C 21 48.550781 21.449219 49 22 49 C 22.550781 49 23 48.550781 23 48 C 23 47.449219 22.550781 47 22 47 Z M 26 47 C 25.449219 47 25 47.449219 25 48 C 25 48.550781 25.449219 49 26 49 C 26.550781 49 27 48.550781 27 48 C 27 47.449219 26.550781 47 26 47 Z M 30 47 C 29.449219 47 29 47.449219 29 48 C 29 48.550781 29.449219 49 30 49 C 30.550781 49 31 48.550781 31 48 C 31 47.449219 30.550781 47 30 47 Z M 34 47 C 33.449219 47 33 47.449219 33 48 C 33 48.550781 33.449219 49 34 49 C 34.550781 49 35 48.550781 35 48 C 35 47.449219 34.550781 47 34 47 Z M 38 47 C 37.449219 47 37 47.449219 37 48 C 37 48.550781 37.449219 49 38 49 C 38.550781 49 39 48.550781 39 48 C 39 47.449219 38.550781 47 38 47 Z M 42 47 C 41.449219 47 41 47.449219 41 48 C 41 48.550781 41.449219 49 42 49 C 42.550781 49 43 48.550781 43 48 C 43 47.449219 42.550781 47 42 47 Z M 46 47 C 45.449219 47 45 47.449219 45 48 C 45 48.550781 45.449219 49 46 49 C 46.550781 49 47 48.550781 47 48 C 47 47.449219 46.550781 47 46 47 Z M 50 47 C 49.449219 47 49 47.449219 49 48 C 49 48.550781 49.449219 49 50 49 C 50.550781 49 51 48.550781 51 48 C 51 47.449219 50.550781 47 50 47 Z M 22 55 C 21.449219 55 21 55.449219 21 56 C 21 56.550781 21.449219 57 22 57 C 22.550781 57 23 56.550781 23 56 C 23 55.449219 22.550781 55 22 55 Z M 26 55 C 25.449219 55 25 55.449219 25 56 C 25 56.550781 25.449219 57 26 57 C 26.550781 57 27 56.550781 27 56 C 27 55.449219 26.550781 55 26 55 Z M 30 55 C 29.449219 55 29 55.449219 29 56 C 29 56.550781 29.449219 57 30 57 C 30.550781 57 31 56.550781 31 56 C 31 55.449219 30.550781 55 30 55 Z M 34 55 C 33.449219 55 33 55.449219 33 56 C 33 56.550781 33.449219 57 34 57 C 34.550781 57 35 56.550781 35 56 C 35 55.449219 34.550781 55 34 55 Z M 38 55 C 37.449219 55 37 55.449219 37 56 C 37 56.550781 37.449219 57 38 57 C 38.550781 57 39 56.550781 39 56 C 39 55.449219 38.550781 55 38 55 Z M 42 55 C 41.449219 55 41 55.449219 41 56 C 41 56.550781 41.449219 57 42 57 C 42.550781 57 43 56.550781 43 56 C 43 55.449219 42.550781 55 42 55 Z M 46 55 C 45.449219 55 45 55.449219 45 56 C 45 56.550781 45.449219 57 46 57 C 46.550781 57 47 56.550781 47 56 C 47 55.449219 46.550781 55 46 55 Z M 50 55 C 49.449219 55 49 55.449219 49 56 C 49 56.550781 49.449219 57 50 57 C 50.550781 57 51 56.550781 51 56 C 51 55.449219 50.550781 55 50 55 Z M 54 55 C 53.449219 55 53 55.449219 53 56 C 53 56.550781 53.449219 57 54 57 C 54.550781 57 55 56.550781 55 56 C 55 55.449219 54.550781 55 54 55 Z M 58 55 C 57.449219 55 57 55.449219 57 56 C 57 56.550781 57.449219 57 58 57 C 58.550781 57 59 56.550781 59 56 C 59 55.449219 58.550781 55 58 55 Z M 16 66 C 15.449219 66 15 66.449219 15 67 C 15 67.550781 15.449219 68 16 68 C 16.550781 68 17 67.550781 17 67 C 17 66.449219 16.550781 66 16 66 Z M 20 66 C 19.449219 66 19 66.449219 19 67 C 19 67.550781 19.449219 68 20 68 C 20.550781 68 21 67.550781 21 67 C 21 66.449219 20.550781 66 20 66 Z M 24 66 C 23.449219 66 23 66.449219 23 67 C 23 67.550781 23.449219 68 24 68 C 24.550781 68 25 67.550781 25 67 C 25 66.449219 24.550781 66 24 66 Z M 28 66 C 27.449219 66 27 66.449219 27 67 C 27 67.550781 27.449219 68 28 68 C 28.550781 68 29 67.550781 29 67 C 29 66.449219 28.550781 66 28 66 Z M 32 66 C 31.449219 66 31 66.449219 31 67 C 31 67.550781 31.449219 68 32 68 C 32.550781 68 33 67.550781 33 67 C 33 66.449219 32.550781 66 32 66 Z M 36 66 C 35.449219 66 35 66.449219 35 67 C 35 67.550781 35.449219 68 36 68 C 36.550781 68 37 67.550781 37 67 C 37 66.449219 36.550781 66 36 66 Z M 40 66 C 39.449219 66 39 66.449219 39 67 C 39 67.550781 39.449219 68 40 68 C 40.550781 68 41 67.550781 41 67 C 41 66.449219 40.550781 66 40 66 Z M 44 66 C 43.449219 66 43 66.449219 43 67 C 43 67.550781 43.449219 68 44 68 C 44.550781 68 45 67.550781 45 67 C 45 66.449219 44.550781 66 44 66 Z M 48 66 C 47.449219 66 47 66.449219 47 67 C 47 67.550781 47.449219 68 48 68 C 48.550781 68 49 67.550781 49 67 C 49 66.449219 48.550781 66 48 66 Z M 52 66 C 51.449219 66 51 66.449219 51 67 C 51 67.550781 51.449219 68 52 68 C 52.550781 68 53 67.550781 53 67 C 53 66.449219 52.550781 66 52 66 Z M 56 66 C 55.449219 66 55 66.449219 55 67 C 55 67.550781 55.449219 68 56 68 C 56.550781 68 57 67.550781 57 67 C 57 66.449219 56.550781 66 56 66 Z M 60 66 C 59.449219 66 59 66.449219 59 67 C 59 67.550781 59.449219 68 60 68 C 60.550781 68 61 67.550781 61 67 C 61 66.449219 60.550781 66 60 66 Z M 64 66 C 63.449219 66 63 66.449219 63 67 C 63 67.550781 63.449219 68 64 68 C 64.550781 68 65 67.550781 65 67 C 65 66.449219 64.550781 66 64 66 Z"/></svg>